<svg xmlns="http://www.w3.org/2000/svg" viewBox="0 0 441.34 471.35"><title>4</title><g id="Слой_2" data-name="Слой 2"><g id="Слой_1-2" data-name="Слой 1"><path d="M229.33,307.08H155.85a7.7,7.7,0,0,0-7.7,7.7V394a7.71,7.71,0,0,0,7.7,7.71h73.48A7.71,7.71,0,0,0,237,394V314.78A7.71,7.71,0,0,0,229.33,307.08Zm-8.45,78.43H164.31V323.23h56.57Z"/><path d="M120,471.35H265.19V186.78H120Zm16.16-16.16V255.67H249V455.19Zm62.36-214.63V202.94h23.41v37.62Zm-15.11,0H163V202.94h20.45Zm65.62,0H237V202.94h12ZM147.85,202.94v37.62H136.16V202.94Z"/><path d="M101,439.36H16.27V359.82H88.89V214.63H16.27V160.57H161.73v5.09a8.08,8.08,0,0,0,16.16,0v-15a6.26,6.26,0,0,0-.14-1.31l.14-.14-.24-.24a6.24,6.24,0,0,0-4.27-4.27l-49.19-49.2V41.09a5.87,5.87,0,0,0-5.88-5.87H59.69a5.87,5.87,0,0,0-5.88,5.87V95.8L5.08,144.53a6.21,6.21,0,0,0-5,6.08v64H0V359.82H.11v89.5a6.21,6.21,0,0,0,6.2,6.2H101a8.08,8.08,0,0,0,0-16.16ZM62.78,105.59h52.78l38.82,38.82H24ZM66.57,48h44.86V92.84H66.57Zm6.16,182.81V343.66H16.27V230.79Z"/><path d="M381.77,287.51a6.85,6.85,0,0,0-3.38-3.51l-24.18-24.18v-27a6.63,6.63,0,0,0-6.62-6.62H316.91a6.62,6.62,0,0,0-6.61,6.62V260l-23.86,23.86a6.82,6.82,0,0,0-4.25,6.29V446.46a6.8,6.8,0,0,0,6.79,6.79h86.54a6.8,6.8,0,0,0,6.79-6.79V290.15c0-.15,0-.29,0-.44A3.52,3.52,0,0,0,381.77,287.51ZM324,235.72h16.39V252.1H324Zm-4.06,30.14H344.6l13.22,13.23H306.68Zm46.77,167.58h-69V294.63h69Z"/><path d="M270,35.23,250.2,3A6.37,6.37,0,0,0,241.49.91L205.81,22.33a6.38,6.38,0,0,0,1.44,11.57l45.48,13.78-4.55,4.56L228.12,72.3l-17,17v75.63a8.51,8.51,0,1,0,17,0V96.71l44.47-44.47H424.33V365.33H404.5a8.51,8.51,0,0,0,0,17h36.84V35.23ZM242.64,15.1,254.88,35l-30.17-9.15Z"/></g></g></svg>