<svg xmlns="http://www.w3.org/2000/svg" viewBox="0 0 382.42 380.94"><title>5</title><g id="Слой_2" data-name="Слой 2"><g id="Слой_1-2" data-name="Слой 1"><path d="M35.11,78.45A6.37,6.37,0,0,0,29.8,66.86a50.83,50.83,0,0,0-12.2,7.85A6.37,6.37,0,1,0,26,84.34,38.1,38.1,0,0,1,35.11,78.45Z"/><path d="M57.36,75H70.11a6.38,6.38,0,0,0,0-12.75H57.36a6.38,6.38,0,0,0,0,12.75Z"/><path d="M95.6,75h12.75a6.38,6.38,0,1,0,0-12.75H95.6A6.38,6.38,0,0,0,95.6,75Z"/><path d="M70.11,151.49H57.36a6.38,6.38,0,0,0,0,12.75H70.11a6.38,6.38,0,0,0,0-12.75Z"/><path d="M146.59,151.49H133.85a6.38,6.38,0,1,0,0,12.75h12.74a6.38,6.38,0,1,0,0-12.75Z"/><path d="M108.35,151.49H95.6a6.38,6.38,0,0,0,0,12.75h12.75a6.38,6.38,0,1,0,0-12.75Z"/><path d="M35.11,148.05a38.13,38.13,0,0,1-9.16-5.9,6.38,6.38,0,0,0-8.35,9.64,51.45,51.45,0,0,0,12.2,7.85,6.37,6.37,0,0,0,5.31-11.59Z"/><path d="M184.83,151.49H172.09a6.38,6.38,0,1,0,0,12.75h12.74a6.38,6.38,0,1,0,0-12.75Z"/><path d="M299.56,151.49H286.81a6.38,6.38,0,0,0,0,12.75h12.75a6.38,6.38,0,0,0,0-12.75Z"/><path d="M337.8,151.49H325.05a6.38,6.38,0,0,0,0,12.75H337.8a6.38,6.38,0,1,0,0-12.75Z"/><path d="M223.08,151.49H210.33a6.38,6.38,0,0,0,0,12.75h12.75a6.38,6.38,0,0,0,0-12.75Z"/><path d="M261.32,151.49H248.57a6.38,6.38,0,0,0,0,12.75h12.75a6.38,6.38,0,0,0,0-12.75Z"/><path d="M35.11,339.26a38.13,38.13,0,0,1-9.16-5.9A6.38,6.38,0,0,0,17.6,343a51.41,51.41,0,0,0,12.2,7.84,6.25,6.25,0,0,0,2.65.58,6.37,6.37,0,0,0,2.66-12.16Z"/><path d="M108.35,342.7H95.6a6.38,6.38,0,0,0,0,12.75h12.75a6.38,6.38,0,1,0,0-12.75Z"/><path d="M70.11,342.7H57.36a6.38,6.38,0,0,0,0,12.75H70.11a6.38,6.38,0,0,0,0-12.75Z"/><path d="M223.08,342.7H210.33a6.38,6.38,0,0,0,0,12.75h12.75a6.38,6.38,0,0,0,0-12.75Z"/><path d="M242.2,349.07a6.37,6.37,0,0,0,6.37,6.38h12.75a6.38,6.38,0,0,0,0-12.75H248.57A6.37,6.37,0,0,0,242.2,349.07Z"/><path d="M286.81,355.45h12.75a6.38,6.38,0,0,0,0-12.75H286.81a6.38,6.38,0,0,0,0,12.75Z"/><path d="M184.83,342.7H172.09a6.38,6.38,0,1,0,0,12.75h12.74a6.38,6.38,0,1,0,0-12.75Z"/><path d="M325.05,355.45H337.8a6.38,6.38,0,1,0,0-12.75H325.05a6.38,6.38,0,0,0,0,12.75Z"/><path d="M146.59,342.7H133.85a6.38,6.38,0,1,0,0,12.75h12.74a6.38,6.38,0,1,0,0-12.75Z"/><path d="M280.44,247.09a25.5,25.5,0,1,0,25.49-25.49A25.52,25.52,0,0,0,280.44,247.09Zm25.49-12.74a12.75,12.75,0,1,1-12.74,12.74A12.76,12.76,0,0,1,305.93,234.35Z"/><path d="M273.7,36.76,239.05,2.12a7.26,7.26,0,0,0-10.26,0l-13,13-13-13a7.25,7.25,0,0,0-10.25,0L157.81,36.76H51a51,51,0,0,0-51,51V335.36a45.64,45.64,0,0,0,45.58,45.58H382.42V36.76ZM233.92,15l21.75,21.74L344.9,126H310.54L238.73,54.18a6.88,6.88,0,0,0-9.68.07L157.31,126H123L224.77,24.18h0Zm58.6,111H175.33l58.59-58.6ZM197.58,15l9.16,9.16L104.92,126H86.6l89.24-89.24ZM51,49.51h94.07L131.93,62.65a6.21,6.21,0,0,0-4,4L68.58,126H51a38.25,38.25,0,0,1,0-76.49ZM369.67,279H299.56a31.87,31.87,0,1,1,0-63.73h70.11Zm0-127.47H363.3a6.38,6.38,0,1,0,0,12.75h6.37v38.24H299.56a44.62,44.62,0,1,0,0,89.23h70.11v51H363.3a6.38,6.38,0,1,0,0,12.75h6.37v12.74H45.58a32.87,32.87,0,0,1-32.83-32.83V321.31a6.27,6.27,0,0,0,1.53-6.08,38.3,38.3,0,0,1-1.53-10.77V130.1A6.26,6.26,0,0,0,14.28,124c-.12-.41-.16-.84-.27-1.26.57.61,1.15,1.2,1.75,1.78s1.12,1,1.69,1.53,1.44,1.23,2.19,1.82c.6.47,1.21.92,1.83,1.37q1.16.83,2.37,1.59c.64.4,1.28.8,1.95,1.18.84.48,1.7.93,2.57,1.36.67.34,1.33.67,2,1,.91.4,1.84.76,2.78,1.11.68.26,1.37.53,2.07.76,1,.32,2,.58,3,.85.67.17,1.34.38,2,.52,1.16.25,2.33.42,3.51.58.59.09,1.16.21,1.75.27a51.4,51.4,0,0,0,5.43.3H369.67ZM362.93,126l-51-51h.37a6.38,6.38,0,0,0,0-12.75H299.56c-.11,0-.2.06-.31.06L286.44,49.51h83.23V126Z"/><path d="M350.55,62.26H337.8a6.38,6.38,0,0,0,0,12.75h12.75a6.38,6.38,0,0,0,0-12.75Z"/></g></g></svg>