<svg xmlns="http://www.w3.org/2000/svg" viewBox="0 0 195.03 196.84"><title>1</title><g id="Слой_2" data-name="Слой 2"><g id="Слой_1-2" data-name="Слой 1"><path d="M57.78,95.59A14.45,14.45,0,1,0,72.23,110,14.46,14.46,0,0,0,57.78,95.59Zm0,26.58A12.14,12.14,0,1,1,69.91,110,12.15,12.15,0,0,1,57.78,122.17Z"/><path d="M175.83,170.77h-.26a16.63,16.63,0,0,0-6.87-11.34V28a28.06,28.06,0,0,0-28-28H76.37a28.06,28.06,0,0,0-28,28V52.26A14.84,14.84,0,0,0,37,63.77H29.69A16.65,16.65,0,0,0,13.05,80.39v54.14A15.67,15.67,0,0,0,0,150v31.19a15.69,15.69,0,0,0,15.68,15.67h84.2a15.69,15.69,0,0,0,15.68-15.67V150a15.68,15.68,0,0,0-13-15.45V80.39A16.65,16.65,0,0,0,85.87,63.77H78.56a14.82,14.82,0,0,0-11.3-11.49V27.05a9.57,9.57,0,0,1,9.56-9.56h63.43a9.57,9.57,0,0,1,9.56,9.56v131.8a16.61,16.61,0,0,0-7.73,11.92h-.26A21,21,0,0,0,123,191.65v3.95H195v-3.95A21,21,0,0,0,175.83,170.77Zm-21.4-70.34h9.66v56.69a16.59,16.59,0,0,0-5-.75h-.61a16.6,16.6,0,0,0-4.09.51ZM15.68,192.21a11.06,11.06,0,0,1-11-11V150a11,11,0,0,1,8.42-10.7V179.8a16.57,16.57,0,0,0,5.58,12.41ZM110.92,150v31.19a11.06,11.06,0,0,1-11,11H96.93a16.61,16.61,0,0,0,5.58-12.41V139.28A11,11,0,0,1,110.92,150ZM78.85,68.38h7a12,12,0,0,1,12,12V179.8a12,12,0,0,1-12,12H29.69a12,12,0,0,1-12-12V80.39a12,12,0,0,1,12-12H78.85Zm-5.07-4.61h-32a10.18,10.18,0,0,1,6.57-6.71,9.91,9.91,0,0,1,3.13-.5h12.6a9.64,9.64,0,0,1,3.18.52A10.16,10.16,0,0,1,73.78,63.77Zm66.47-50.9H76.82a14.21,14.21,0,0,0-14.2,14.18V51.92H53V28A23.42,23.42,0,0,1,76.37,4.62h64.31A23.44,23.44,0,0,1,164.09,28V94.51h-9.66V27.05A14.19,14.19,0,0,0,140.25,12.87Zm10.26,149.67a13.25,13.25,0,0,1,4.25-2.16,13.06,13.06,0,0,1,3.76-.55h.61a13.05,13.05,0,0,1,4.55.81,13.18,13.18,0,0,1,8.4,10H145.57A13.27,13.27,0,0,1,150.51,162.54ZM127.63,191A16.36,16.36,0,0,1,144,175.29h30.09A16.36,16.36,0,0,1,190.38,191Z"/><path d="M31,109.7v74.09h4.62V109.7a22.16,22.16,0,1,1,44.31,0v74.09h4.63V109.7a26.78,26.78,0,0,0-53.56,0Z"/><rect x="49.29" y="146.71" width="17.76" height="5.92"/><rect x="49.29" y="158.91" width="17.76" height="5.92"/><rect x="49.29" y="171.11" width="17.76" height="5.92"/></g></g></svg>