<svg xmlns="http://www.w3.org/2000/svg" viewBox="0 0 512 511.98"><title>2</title><g id="Слой_2" data-name="Слой 2"><g id="Слой_1-2" data-name="Слой 1"><path d="M400.41,154.16c-3.41-1.66-7.06-3.29-10.82-4.9A102.36,102.36,0,1,0,204.67,143c-5.44,2-10.77,4.33-16,6.77-20.94-19.15-53.77-21.55-67.67-21.62a17.1,17.1,0,0,0-17,14.32,131.72,131.72,0,0,0-1.51,24.3,147.24,147.24,0,0,0-20.38,2.56,17.12,17.12,0,0,0-13.85,17.41,104.71,104.71,0,0,0,12.66,47.76c-1,1.09-2,2.16-2.93,3.25-5.44,6.07-11.08,12.35-16.83,18.16A68.82,68.82,0,0,1,23,270,26.52,26.52,0,0,0,.53,301.56L14.4,371.33c1,5.89,6.69,10.55,16.74,17.06l1.19.79A108.88,108.88,0,0,0,56.5,400.85a133.18,133.18,0,0,1,15.67,6.77,89.8,89.8,0,0,1,29.68,25.84c1.42,2,2.92,3.89,4.59,5.83a111.06,111.06,0,0,0,55.67,31.44v15.66A25.59,25.59,0,0,0,187.69,512H247.4A25.59,25.59,0,0,0,273,486.39v-1.08c7.14.33,14.27.66,21.47.9,3.91.14,7.8.2,11.65.2,6.14,0,12.13-.23,18.06-.56v.54A25.59,25.59,0,0,0,349.76,512h59.71a25.59,25.59,0,0,0,25.59-25.59v-33a160.17,160.17,0,0,0,76.77-128.28C515.11,255.47,471.37,188.37,400.41,154.16ZM298.58,17.25A85.15,85.15,0,0,1,335.85,179.1,281.8,281.8,0,0,0,252,173.8,85.17,85.17,0,0,1,298.58,17.25ZM120.94,145.19a97.69,97.69,0,0,1,51,13.15c-8.14,4.62-16.35,9.95-24.52,15.72A81.67,81.67,0,0,0,119.56,167,107.64,107.64,0,0,1,120.94,145.19ZM85.44,186a127.86,127.86,0,0,1,25.82-2.45c.15,0,.28.08.42.08a4.17,4.17,0,0,0,.8-.06,53,53,0,0,1,42.65,17.92,25.57,25.57,0,0,1,5.11,27.76,38.59,38.59,0,0,1-32.42,18.27c-19,0-40.42-19.26-42.48-61.52ZM494.77,324.25A142.16,142.16,0,0,1,434.61,433a8.4,8.4,0,0,0-8.08-6.35,8.53,8.53,0,0,0-8.53,8.53v51.18a8.53,8.53,0,0,1-8.53,8.53H349.76a8.53,8.53,0,0,1-8.53-8.53V460.8a8.53,8.53,0,0,0-17.06,0v7.89c-9.45.56-19.16.85-29.15.47-7.38-.25-14.7-.58-22-.92V460.8a8.53,8.53,0,0,0-17.06,0v25.59a8.53,8.53,0,0,1-8.53,8.53H187.69a8.53,8.53,0,0,1-8.53-8.53V443.74a8.53,8.53,0,1,0-17,0v9.19a88.36,88.36,0,0,1-42.74-24.81c-1.3-1.51-2.51-3-3.71-4.71a107,107,0,0,0-35.44-30.85,147.52,147.52,0,0,0-17.65-7.67A94.81,94.81,0,0,1,42,375.08l-1.54-1a57.85,57.85,0,0,1-9.51-7L17.27,298.16a9.4,9.4,0,0,1,1.59-7.43,9.2,9.2,0,0,1,6.34-3.85c15.35-2,36.17-7,48.11-19,6-6.12,11.83-12.55,17.41-18.76l.71-.8a51.36,51.36,0,0,0,36.39,16.29,55.36,55.36,0,0,0,47.72-27.73,42.35,42.35,0,0,0-6.77-45.63,54.44,54.44,0,0,0-6.26-6.88c6.21-4.19,12.41-8.15,18.55-11.61a215.56,215.56,0,0,1,31.9-14.5,103.09,103.09,0,0,0,15.14,18.2c-9.62,1.44-15.71,2.8-16.74,3a8.54,8.54,0,0,0,3.84,16.64c1.07-.26,107.89-24.06,172.09,24.1a8.53,8.53,0,0,0,10.24-13.65,152,152,0,0,0-39.56-21,101.43,101.43,0,0,0,22.26-21.76c4.49,1.87,8.77,3.73,12.73,5.66C457.78,200.77,497.75,261.51,494.77,324.25Z"/><path d="M273,130a8.53,8.53,0,0,0-17.06,0c0,18.92,19.13,34.32,42.65,34.32S341.23,149,341.23,130c0-16.56-14.68-30.43-34.12-33.61V62.3c9.81,2.44,17.06,8.82,17.06,16.16a8.53,8.53,0,0,0,17.06,0c0-16.57-14.68-30.43-34.12-33.62v-2a8.53,8.53,0,0,0-17.06,0v2c-19.44,3.19-34.12,17.06-34.12,33.62s14.68,30.42,34.12,33.61v34.12C280.24,143.75,273,137.37,273,130Zm51.18,0c0,7.34-7.25,13.72-17.06,16.16V113.88C316.92,116.32,324.17,122.7,324.17,130ZM273,78.48c0-7.34,7.25-13.72,17.06-16.16V94.63C280.24,92.19,273,85.81,273,78.48Z"/></g></g></svg>