<svg xmlns="http://www.w3.org/2000/svg" viewBox="0 0 511.94 512"><title>3</title><g id="Слой_2" data-name="Слой 2"><g id="Слой_1-2" data-name="Слой 1"><path d="M59.67,324.27a8.53,8.53,0,0,0-8.53,8.53v8.53a8.54,8.54,0,1,0,17.07,0V332.8A8.53,8.53,0,0,0,59.67,324.27Zm0,42.66a8.53,8.53,0,0,0-8.53,8.54V435.2a8.54,8.54,0,0,0,17.07,0V375.47A8.54,8.54,0,0,0,59.67,366.93ZM247.41,460.8h-51.2a8.54,8.54,0,1,0,0,17.07h51.2a8.54,8.54,0,0,0,0-17.07Zm-85.14,0a18.85,18.85,0,0,1-11.23-6A8.53,8.53,0,0,0,139,466.82a34.67,34.67,0,0,0,23.1,11.05,8.44,8.44,0,0,0,8.42-8.32A8.62,8.62,0,0,0,162.27,460.8Z"/><path d="M486.34,0H76.74a25.6,25.6,0,0,0-25.6,25.6V288.84a228,228,0,0,1-25.6,1.2A25.6,25.6,0,0,0,0,315.64V452.17a25.6,25.6,0,0,0,25.6,25.6H75.17c.53,0,1,.11,1.57.11H87.83a17.36,17.36,0,0,1,9.87,3.49,136.33,136.33,0,0,0,20.48,13.1A153.59,153.59,0,0,0,183.13,512c1.51,0,3,0,4.54-.11h34.64l93.36.11a34.14,34.14,0,0,0,34.14-34.13H486.34a25.6,25.6,0,0,0,25.6-25.6V25.6A25.6,25.6,0,0,0,486.34,0Zm-128,17.07V147.63L294.22,112a8.49,8.49,0,0,0-8.29,0l-64.12,35.62V17.07ZM315.67,494.93l-93.45-.1h-35a134.8,134.8,0,0,1-61.2-15.53,121.8,121.8,0,0,1-18-11.53A34.59,34.59,0,0,0,90,461c-.22,0-.41-.13-.64-.13h-.9c-.41,0-.8-.11-1.19-.11H25.54A8.53,8.53,0,0,1,17,452.18V315.65a8.54,8.54,0,0,1,8.53-8.54c20.08,0,48.64-1.39,64.77-13.35,1.53-1.13,3.41-2.33,5.35-3.59a83.56,83.56,0,0,0,11.9-8.75c30.45-18.47,41.3-82.13,45-132.61a13.29,13.29,0,0,1,26.55,1V273.07a34.13,34.13,0,0,0,34.13,34.13l68.27-.06h51.35a17.07,17.07,0,0,1,2.16,34.07c-.54,0-1.08,0-1.62,0a9,9,0,0,0-1.25.27l-16.33-.17h-.07a8.54,8.54,0,0,0-.06,17.07l42.56.31h.06a17.07,17.07,0,0,1,3.91,33.7l-46.58.12a8.54,8.54,0,0,0,0,17.07l25.26-.07c.11,0,.21.07.32.07a17.07,17.07,0,0,1,0,34.13H307.14a8.54,8.54,0,0,0,0,17.07h8.53a17.07,17.07,0,1,1,0,34.13Zm179.2-42.66a8.53,8.53,0,0,1-8.53,8.53H345.07l-.21-.38a33.91,33.91,0,0,0,24.88-52.53,33.57,33.57,0,0,0,21.45-41h69.55a8.53,8.53,0,0,0,0-17.06H380.32A33.16,33.16,0,0,0,362.21,342a33.72,33.72,0,0,0,5-17.74h93.51a8.54,8.54,0,0,0,0-17.07H362.68A33.06,33.06,0,0,0,332.74,290H272.6c-.09,0-.15,0-.23,0l-59.1.08a17.06,17.06,0,0,1-17.06-17.06V149.82a30.35,30.35,0,0,0-60.59-2.27c-4.76,64.36-18.77,109.07-37.45,119.61a8.57,8.57,0,0,0-2,1.52,63.58,63.58,0,0,1-9.78,7.16c-2.26,1.46-4.42,2.87-6.21,4.18a38.9,38.9,0,0,1-11.94,5.53V25.6a8.53,8.53,0,0,1,8.47-8.53h128V162.13a8.53,8.53,0,0,0,12.68,7.46l72.65-40.36,72.66,40.36a8.54,8.54,0,0,0,12.68-7.46V17.07H486.34a8.53,8.53,0,0,1,8.53,8.53Z"/><path d="M460.74,221.87H341.27a8.53,8.53,0,1,0,0,17.06H460.74a8.53,8.53,0,0,0,0-17.06Zm0,42.66H366.87a8.54,8.54,0,0,0,0,17.07h93.87a8.54,8.54,0,0,0,0-17.07Z"/></g></g></svg>