<svg xmlns="http://www.w3.org/2000/svg" viewBox="0 0 512 511.95"><title>6</title><g id="Слой_2" data-name="Слой 2"><g id="Слой_1-2" data-name="Слой 1"><path d="M451.48,104A8.53,8.53,0,0,0,449.59,116,238.91,238.91,0,0,1,256,494.89,236.45,236.45,0,0,1,98,435.16h30a8.54,8.54,0,1,0,0-17.07H76.82a10.24,10.24,0,0,0-1.25.25,9.55,9.55,0,0,0-1.9.38,8.33,8.33,0,0,0-1.83,1.16,8.64,8.64,0,0,0-.91.57l-.05.07a9.12,9.12,0,0,0-1.39,2c-.15.27-.4.48-.52.76s-.11.62-.2.93a8.87,8.87,0,0,0-.48,2.33v51.29a8.53,8.53,0,0,0,17.06,0V446.69A253.33,253.33,0,0,0,256,512a256,256,0,0,0,207.4-406,8.53,8.53,0,0,0-11.92-1.9Z"/><path d="M17.09,256C17.24,124.09,124.12,17.21,256,17.07A236.46,236.46,0,0,1,414,76.79H384a8.54,8.54,0,0,0,0,17.07h51.19a7.73,7.73,0,0,0,1.27-.26,8.58,8.58,0,0,0,1.88-.37,8.39,8.39,0,0,0,1.9-1.21,6.24,6.24,0,0,0,.85-.52l.05-.07a8.48,8.48,0,0,0,1.47-2.09,6.64,6.64,0,0,0,.43-.65,7,7,0,0,0,.22-1,8.35,8.35,0,0,0,.47-2.26V34.13a8.54,8.54,0,0,0-17.07,0V65.27A253.29,253.29,0,0,0,256,0,256,256,0,0,0,48.6,406a8.54,8.54,0,0,0,13.82-10A237.12,237.12,0,0,1,17.09,256Z"/><path d="M264.53,51.2V42.66a8.53,8.53,0,1,0-17.06,0V51.2a8.53,8.53,0,1,0,17.06,0Z"/><path d="M256,477.82a8.53,8.53,0,0,0,8.53-8.53v-8.54a8.53,8.53,0,1,0-17.06,0v8.54A8.53,8.53,0,0,0,256,477.82Z"/><path d="M220.44,62.84a10.43,10.43,0,0,0,1.48-.13,8.53,8.53,0,0,0,6.92-9.89l-1.48-8.4a8.54,8.54,0,0,0-16.81,3l1.49,8.4A8.55,8.55,0,0,0,220.44,62.84Z"/><path d="M290.08,449.25a8.53,8.53,0,0,0-6.92,9.88l1.48,8.4a8.52,8.52,0,0,0,8.39,7.05,8.26,8.26,0,0,0,1.49-.14,8.53,8.53,0,0,0,6.92-9.88L300,456.17A8.53,8.53,0,0,0,290.08,449.25Z"/><path d="M186,72.07a8.54,8.54,0,0,0,8-11.45l-2.91-8a8.54,8.54,0,1,0-16,5.84l2.91,8A8.53,8.53,0,0,0,186,72.07Z"/><path d="M320.93,459.34a8.53,8.53,0,1,0,16-5.83l-2.92-8a8.53,8.53,0,1,0-16,5.84Z"/><path d="M146.22,82.9A8.53,8.53,0,1,0,161,74.37L156.73,67A8.53,8.53,0,1,0,142,75.51Z"/><path d="M354.12,425.93A8.53,8.53,0,0,0,351,437.58l4.27,7.39a8.53,8.53,0,1,0,14.78-8.53l-4.27-7.39A8.54,8.54,0,0,0,354.12,425.93Z"/><path d="M113.4,86a8.54,8.54,0,0,0-1.06,12l5.49,6.54a8.53,8.53,0,1,0,13.08-11l-5.49-6.55A8.54,8.54,0,0,0,113.4,86Z"/><path d="M382.14,406.3a8.54,8.54,0,0,0-1,12l5.48,6.54a8.53,8.53,0,1,0,13.07-11l-5.48-6.54a8.54,8.54,0,0,0-12-1.06Z"/><path d="M104.61,117.82l-6.53-5.49a8.54,8.54,0,0,0-11,13.1l6.53,5.49a8.53,8.53,0,1,0,11-13.07Z"/><path d="M407.38,394.14l6.55,5.49a8.54,8.54,0,1,0,11-13.11L418.35,381a8.54,8.54,0,1,0-11,13.08Z"/><path d="M78.64,162.12a8.54,8.54,0,0,0,4.27-15.93l-7.39-4.26A8.53,8.53,0,0,0,67,156.71L74.38,161A8.48,8.48,0,0,0,78.64,162.12Z"/><path d="M436.46,370A8.53,8.53,0,1,0,445,355.25L437.61,351a8.54,8.54,0,1,0-8.54,14.78Z"/><path d="M66.49,177.93l-8-2.93a8.53,8.53,0,1,0-5.85,16l8,2.92a8.53,8.53,0,1,0,5.85-16Z"/><path d="M456.44,337.47a8.53,8.53,0,0,0,2.93-16.55l-8-2.92a8.53,8.53,0,1,0-5.85,16l8,2.93A8.6,8.6,0,0,0,456.44,337.47Z"/><path d="M52.86,228.82a9.23,9.23,0,0,0,1.48.12A8.53,8.53,0,0,0,55.81,212l-8.4-1.48a8.54,8.54,0,0,0-3,16.82Z"/><path d="M474.47,294.49a8.53,8.53,0,0,0-6.92-9.89l-8.4-1.47A8.54,8.54,0,0,0,456.2,300l8.4,1.47a9,9,0,0,0,1.48.13A8.53,8.53,0,0,0,474.47,294.49Z"/><path d="M34.15,256a8.53,8.53,0,0,0,8.54,8.53h8.53a8.54,8.54,0,0,0,0-17.07H42.69A8.54,8.54,0,0,0,34.15,256Z"/><path d="M477.85,256a8.54,8.54,0,0,0-8.54-8.54h-8.53a8.54,8.54,0,0,0,0,17.07h8.53A8.53,8.53,0,0,0,477.85,256Z"/><path d="M45.92,301.55a9.37,9.37,0,0,0,1.49-.13l8.4-1.47a8.54,8.54,0,0,0-3-16.82l-8.41,1.47a8.54,8.54,0,0,0,1.47,16.95Z"/><path d="M464.6,210.53,456.2,212a8.53,8.53,0,0,0,1.47,16.93,9.23,9.23,0,0,0,1.48-.12l8.4-1.47a8.54,8.54,0,0,0-2.95-16.82Z"/><path d="M55.55,337.47a8.61,8.61,0,0,0,2.93-.52l8-2.93a8.53,8.53,0,1,0-5.89-16l-8,2.92a8.53,8.53,0,0,0,2.93,16.55Z"/><path d="M453.52,175l-8,2.93a8.53,8.53,0,1,0,5.85,16l8-2.92a8.53,8.53,0,0,0-5.85-16Z"/><path d="M75.53,370l7.39-4.26A8.54,8.54,0,1,0,74.38,351L67,355.25A8.53,8.53,0,1,0,75.53,370Z"/><path d="M436.46,141.93l-7.39,4.26A8.54,8.54,0,1,0,437.61,161l7.39-4.26a8.54,8.54,0,1,0-8.54-14.78Z"/><path d="M93.64,381.07l-6.53,5.49a8.53,8.53,0,0,0,11,13.06l6.53-5.48a8.53,8.53,0,1,0-11-13.07Z"/><path d="M412.88,132.88a8.48,8.48,0,0,0,5.47-2l6.54-5.49a8.53,8.53,0,0,0-11-13.08l-6.55,5.49a8.53,8.53,0,0,0,5.5,15.07Z"/><path d="M145.08,448.1A8.53,8.53,0,0,0,156.73,445l4.27-7.39a8.53,8.53,0,0,0-14.78-8.53L142,436.44a8.52,8.52,0,0,0,3.12,11.66Z"/><path d="M358.39,87.17a8.56,8.56,0,0,0,7.4-4.27l4.26-7.39A8.53,8.53,0,1,0,355.27,67L351,74.37a8.54,8.54,0,0,0,7.38,12.8Z"/><path d="M188.88,440.39a8.55,8.55,0,0,0-10.94,5.12l-2.91,8a8.54,8.54,0,0,0,16,5.84l2.91-8a8.54,8.54,0,0,0-5.1-11Z"/><path d="M323.13,71.56a8.51,8.51,0,0,0,10.92-5.12l2.92-8a8.54,8.54,0,0,0-16-5.84l-2.91,8a8.53,8.53,0,0,0,5.11,11Z"/><path d="M212,456.17l-1.49,8.39a8.54,8.54,0,0,0,6.93,9.88,8.26,8.26,0,0,0,1.49.14,8.51,8.51,0,0,0,8.39-7.05l1.48-8.4a8.53,8.53,0,1,0-16.8-3Z"/><path d="M291.56,62.84a8.55,8.55,0,0,0,8.4-7.05l1.48-8.4a8.53,8.53,0,1,0-16.8-3l-1.48,8.4a8.53,8.53,0,0,0,6.92,9.89A10.56,10.56,0,0,0,291.56,62.84Z"/><path d="M256,264.51H209.93l21.93-19.83c1.81-1.64,3.71-3.27,5.64-4.92,12-10.36,27-23.26,27-43.51a42.66,42.66,0,1,0-85.32,0,8.53,8.53,0,0,0,17.06,0,25.41,25.41,0,0,1,7.5-18.1,26.22,26.22,0,0,1,36.21,0,25.45,25.45,0,0,1,7.49,18.1c0,12.42-10.24,21.23-21.11,30.56-2,1.71-4.05,3.47-6,5.2L182,266.71a8.53,8.53,0,0,0,5.75,14.86H256a8.53,8.53,0,0,0,0-17.06Z"/><path d="M324.26,281.57a8.53,8.53,0,0,0,8.53-8.53V256h8.54a8.54,8.54,0,0,0,0-17.07h-8.54v-8.53a8.53,8.53,0,0,0-17.06,0v8.53H286.87l36.54-73a8.54,8.54,0,0,0-15.28-7.63l-42.66,85.33A8.53,8.53,0,0,0,273.06,256h42.67V273a8.54,8.54,0,0,0,8.53,8.53Z"/><path d="M196.27,307.17a8.53,8.53,0,1,0-17.06,0v17.07H162.14V307.17a8.53,8.53,0,1,0-17.06,0v51.2a8.53,8.53,0,1,0,17.06,0V341.3h17.07v17.07a8.53,8.53,0,0,0,17.06,0Z"/><path d="M256,349.84V315.7a17.06,17.06,0,0,0-17.07-17.06H221.87A17.06,17.06,0,0,0,204.8,315.7v34.14a17.06,17.06,0,0,0,17.07,17.06h17.06A17.06,17.06,0,0,0,256,349.84ZM221.87,315.7h17.06v34.14H221.87Z"/><path d="M315.73,349.84V307.17a8.54,8.54,0,0,0-17.07,0v42.67H281.6V307.17a8.54,8.54,0,0,0-17.07,0v42.67A17.06,17.06,0,0,0,281.6,366.9h17.06A17.06,17.06,0,0,0,315.73,349.84Z"/><path d="M375.46,324.24a25.6,25.6,0,0,0-25.6-25.6H332.79a8.53,8.53,0,0,0-8.53,8.53v51.2a8.54,8.54,0,0,0,17.07,0v-8.53h5l14.56,14.56A8.53,8.53,0,0,0,373,352.34l-7.75-7.75A25.5,25.5,0,0,0,375.46,324.24Zm-34.13-8.54h8.53a8.54,8.54,0,0,1,0,17.07h-8.53Z"/></g></g></svg>