<svg xmlns="http://www.w3.org/2000/svg" viewBox="0 0 947.16 389.71"><title>carpet</title><g id="Слой_2" data-name="Слой 2"><g id="Слой_1-2" data-name="Слой 1"><path d="M0,110.07,38.4,99.39Q216.49,50,394.63.64a20,20,0,0,1,10.51.13q162.95,48.88,325.8,98.08,106,32,212.06,64c1.12.33,2.2.75,4.16,1.42-1.88,1.15-3.16,2-4.49,2.73L623.87,348c-23.6,13.4-47.21,26.77-70.71,40.35-3.15,1.82-5.46,1.76-8.62.14Q333.63,280.57,122.64,172.8L5.69,113.08C4.09,112.26,2.51,111.4,0,110.07Zm26.54-.48c2.53,1.38,3.81,2.13,5.13,2.8q75.61,38,151.23,76,181.12,91,362.21,182.12c3.24,1.63,5.58,1.5,8.67-.28,21.66-12.43,43.43-24.66,65.16-37L889.67,179.91c9.65-5.47,19.28-11,29.71-16.89-2.39-.89-3.87-1.54-5.41-2q-82.05-25-164.13-50.08Q576.11,58.06,402.34,5.3a16.18,16.18,0,0,0-8.62-.18q-160.05,45.36-320,91C58.39,100.46,43.1,104.85,26.54,109.59Z"/><path d="M40.76,110l42.9-12.48q154.7-45,309.43-89.86a17.51,17.51,0,0,1,9.55.07Q592,66.79,781.2,126.07q58.56,18.33,117.08,36.7c1.57.49,3.12,1,5.77,1.86-2,1.27-3.29,2.13-4.62,2.88L570,351.81c-5.23,2.93-10.6,5.63-15.61,8.89-3.28,2.14-5.83,1.72-9.12.09q-131.6-65.54-263.3-130.89-118-58.6-236.12-117.15C44.37,112,43,111.23,40.76,110Zm10.45,0c2.26,1.19,3.7,2,5.18,2.72q102.21,50,204.42,100.07,142.33,69.69,284.61,139.49a6.83,6.83,0,0,0,7.29-.28c13.35-7.52,26.79-14.86,40.21-22.24q147-80.8,294-161.63c1.22-.67,2.35-1.53,4.08-2.68-2.31-.76-3.85-1.29-5.39-1.78Q644.9,87.18,404.16,10.54a19.28,19.28,0,0,0-12-.34q-151.47,44.47-303,88.71C76.73,102.53,64.36,106.2,51.21,110.08Z"/><path d="M119.25,108.17c17.9-5.58,34.87-10.88,51.86-16.14Q280.7,58.12,390.33,24.3a15.12,15.12,0,0,1,8.58-.19q208.8,67.69,417.51,135.65c1.1.36,2.18.78,4,1.44-1.85,1.07-3.14,1.9-4.51,2.59Q683,231.14,550.11,298.54a10,10,0,0,1-9.66.26q-102.47-46.55-205-92.87-105.28-47.6-210.6-95.11C123.32,110.14,121.85,109.4,119.25,108.17Zm695,53.67c-2.51-1-3.72-1.47-5-1.88Q604.54,93.36,399.77,26.89a16.85,16.85,0,0,0-9.57,0q-111.58,34.32-223.06,69c-13.25,4.11-26.49,8.24-41,12.77,3.08,1.43,5,2.32,6.89,3.18q203.07,91.77,406.1,183.61c4.31,1.95,7.62,2.05,12-.16Q660.92,239.34,771,183.76C785.05,176.64,799.1,169.51,814.22,161.84Z"/><path d="M131.36,108.93c11.3-3.53,21.55-6.78,31.83-10q113.64-35.16,227.3-70.19a15.93,15.93,0,0,1,9.05.09Q602.62,94.66,805.63,160.73c.93.3,1.83.69,3.33,1.26a33.28,33.28,0,0,1-3,2Q677.12,229.26,548.16,294.4c-1.9,1-5.15.57-7.24-.37q-102.84-46.26-205.56-92.79L137.57,111.88C135.82,111.08,134.1,110.23,131.36,108.93ZM517.89,72.58c0,3.35.08,6.34,0,9.32,0,1.06-.29,2.82-.9,3-4.55,1.74-9.18,4.33-13.86,4.5-16.82.57-33.66.48-50.49.23-4.62-.07-9.23-1.6-13.92-2.47.44-5.22.75-9.52,1.21-13.81.09-.87.61-2.2,1.23-2.4,4.05-1.32,8.15-3.25,12.28-3.36,14.49-.4,29-.14,43.49-.16,1.11,0,2.23-.25,4.73-.54-9.09-3.51-16.71-6-25.12-5.3a112.09,112.09,0,0,1-17.48,0c-5.91-.45-11.76-1.68-16.79-2.44-2.08-5.64,3.4-12.94-6.44-13.43-.54,4-1.06,7.87-1.45,10.82-8.56,5.59-17.47,5.47-26.48,5.26-9.66-.23-19.35.22-29-.23-6.07-.28-12.08-1.67-18.05-2.56,1-9.67,1.11-9.77,8.53-11.87,1.58-.44,3-1.33,4.58-1.9,2.48-.92,5-2.45,7.49-2.5,13.59-.24,27.18-.11,40.77-.11l.24-2.21c-5.55-1.16-11.07-3-16.67-3.33a230.36,230.36,0,0,0-25.47.37c-3.4.18-6.75,1.49-10.07,2.47-2.13.62-4.12,1.74-6.26,2.31-3.32.89-6.71,1.49-10.48,2.3,3.17,3.18,2.26,12.31-1.06,13.16-5.52,1.41-10.41,4.79-16.66,4.14-6.59-.68-13.34.29-20-.18-11.51-.8-22.28,1.85-33.29,4.82-10.27,2.76-17.88,7-20,18.1a4,4,0,0,1-.84,1.79c-.61.69-1.34,1.63-2.14,1.75-5.71.91-11.47,2.39-17.19,2.31-21.52-.3-43-.53-63.25,8.34-2.57,1.13-5.39,1.68-8.06,2.62-1.05.37-2.45.82-2.89,1.66-2.46,4.62-4.67,9.37-7.06,14.29l6.18,2.81c2.35-5,4.29-9.59,6.7-13.92a6.72,6.72,0,0,1,4.31-3.1c5-.61,9.89-1.13,13.42-5.51.62-.77,2.39-.83,3.63-.84q23-.1,46-.09c1.3,0,2.82-.07,3.86.54,3.06,1.78,5.93,3.88,9.32,6.16-2,4.73-4.27,10.06-6.65,15.33a3.37,3.37,0,0,1-2.08,1.78c-8.8,1.31-17.59,3-26.44,3.55-12,.7-24,.42-36,.59-1.18,0-2.35.24-4.06.43,7,4.34,13.68,6.58,21.36,5.88,5.62-.52,11.39.39,17-.3,8.5-1.05,15.72,1.69,22.77,5.9l-5.82,13.91,6.86,3.06c1.09-2.54,2.19-4.77,3-7.09,2.16-5.93,3.92-12.12,12.14-12,1,0,2-1.11,3.1-1.5,2.69-1,5.41-2.5,8.15-2.57,15.32-.39,30.66-.19,46-.68,6.51-.2,12.43.58,17.87,4.91-1.63,5.71-3.28,11.6-5,17.47-.27.89-.84,2.17-1.52,2.36-4.6,1.26-9.24,3.07-13.92,3.23-17.16.57-34.33.55-51.49.78-1.65,0-3.29.17-6,.32,8.16,4.77,15.37,7.51,23.83,6.63,6.6-.69,13.32-.33,20-.37,8.17,0,16.75-1.75,23.35,6.62l-4.32,15.87,7.71,3.62c1.54-5.65,2.94-10.91,4.44-16.15.35-1.24,1-3.41,1.55-3.42,7.39-.15,13.65-3.28,19.76-6.92.25-.15.66,0,1,0,19.33-.26,38.66-.8,58-.57,4.34,0,8.68,2.7,12.94,4.36.54.22.87,1.74.79,2.61-.66,7.42-1.44,14.82-2.11,21.51-24.57,11.28-50.21,4.51-75.53,7.85,7.87,3.89,14.89,7.54,23.61,6.71,8.1-.77,16.36.2,24.48-.5,9-.79,17.25,1.32,25.55,5.17-.58,5.34-1,10.83-1.84,16.23-.58,3.55.25,5.73,3.85,6.72a47.78,47.78,0,0,1,4.93,2c.51-5.55,1.41-10.69,1.35-15.8-.08-6.54,1.35-10.9,9-11.47,3.41-.25,6.65-3.28,10-3.41,17.48-.64,35-.35,52.47-1.21,8.43-.42,15.89,1.6,23.82,5.22v28.72c-24.43,10.61-50.33,3.43-76.07,7.26,8.24,3.94,15.34,7.73,24.28,7,11.11-.93,22.31-.62,33.48-.81a11.36,11.36,0,0,1,4.42.32c5,2.06,9.81,4.39,15.77,7.1,0,4.15-.15,9.3,0,14.44.31,8.69.55,8.85,9.45,11.11V258.63c3.81-1.55,7.73-3.22,11.71-4.77,2.37-.92,4.8-2.28,7.24-2.36,20.16-.6,40.32-.95,60.48-1.37,1,0,2.37-.38,2.93.12,5.15,4.63,8.61-.37,13-1.92l-4.78-3.64c6.5-6.84,15.5-1.31,23.29-5.88l-7.83-2c-1.69-9.78-3.38-19.53-5-29.08,4.69-1.75,8.8-4.5,13-4.64,22.15-.77,44.32-1.27,66.47-.92,5.26.08,9-1.48,13.12-3.78l-6-3.52c6.74-6.56,15.29-.83,22-5a34.52,34.52,0,0,0-7.09-2c-1.19-.28-3.08-.54-3.36-1.29-2.8-7.54-5.33-15.18-8.33-23.94,6-.77,10.78-1.78,15.64-1.93,13.65-.42,27.32-.48,41-.71,1.15,0,2.29-.24,4.71-.5-10.7-3.88-19.92-7.58-30.28-6.23-3.94.52-8,.12-12,.28-4.66.17-9.12.39-13-3.28a10.2,10.2,0,0,0-6.49-2.19c-4.25,0-6-2.23-6.56-5.89-.88-5.88-4.92-7.46-10.46-8,1.37,4.65,2.63,8.88,3.86,13-3.25,1.47-6.06,2.86-9,4-2.62,1-5.33,2.52-8,2.59-17.65.46-35.32.75-53,.74-4.73,0-9.48-1.23-14.19-2.05a2.94,2.94,0,0,1-2.07-1.68c-1.31-6.78-2.44-13.6-3.7-20.92,20.07-6.18,40.09-1.36,59.68-4.74C673.93,123,667,120.79,659.94,120c-12.32-1.34-25,2.5-37.08-3.9-3.26-1.73-5.16-2.84-5.23-6.39-.09-5-2.7-7.32-8-7.08.56,4.13,1.11,8.15,1.59,11.68-3.79,1.71-6.91,3.18-10.09,4.53-1.59.69-3.27,1.65-4.92,1.67-18.32.24-36.66.61-55,.26-4.76-.1-9.49-2.53-14.18-4.05-.52-.17-1-1.33-1-2-.09-5.12,0-10.24,0-14.9,9.45-5.91,19.77-4,29.79-4.16s20.24,0,31.74,0c-13.57-7.92-26.91-6.69-39.93-5.94-8.36.48-15.42-2.28-22.68-5.19C523.81,73.61,523.81,73.61,517.89,72.58Z"/><path d="M531.89,210.5c11.72-7.37,25.27-6.47,38.67-6.57,10-.08,20,.48,29.93-.51,8.54-.85,15.86,2.81,23.75,4.24a3.32,3.32,0,0,1,2,2.27c1.51,9,2.84,18,4.14,26.51-9.87,5.65-20.33,6.2-31,6.24-16.31.06-32.62.94-48.92.64-5.74-.11-11.47-2.6-17.13-4.24-.71-.2-1.41-1.82-1.42-2.79C531.85,227.65,531.89,219,531.89,210.5Z"/><path d="M521,169.31v21.43c-9.21,7.74-20.21,7-31.13,7-13.64,0-27.3.81-40.92.35-6.38-.21-12.7-2.58-19.48-4.07.76-8.53,1.47-16.44,2.11-23.67,11.33-6.82,23.4-7.26,35.67-7.1,11.64.16,23.29-.2,34.93-.38,3.32,0,6.26.1,9.2,2.48C513.8,167.34,517.38,167.91,521,169.31Z"/><path d="M528.71,170.35c5.27-2.66,9.61-4.92,14-7a9.36,9.36,0,0,1,3.79-.75q26.72-.42,53.42-.72a8.53,8.53,0,0,1,3.82.56c5,2.53,9.94,5.26,16.43,8.75.7,4.49,1.75,11.15,2.74,17.49-9.67,5.44-19.36,8.07-30.33,7.52-13.43-.68-26.94.45-40.42.4-3.43,0-6.87-1.48-10.28-2.38-3.82-1-7.6-2.17-11.93-3.41C529.55,184,529.1,176.74,528.71,170.35Z"/><path d="M628.31,170c4.17-3,7.5-5.55,11-7.81,1-.65,2.55-.6,3.85-.62,18.81-.27,37.62-.75,56.42-.57,5.32,0,10.66,2,15.93,3.27.85.21,1.73,1.51,2.05,2.49,2.37,7.06,4.6,14.16,6.71,20.74-3.59,2.19-6.73,4.29-10.06,6a11,11,0,0,1-4.77.91q-29.7.47-59.41.73a14.48,14.48,0,0,1-5-1.43c-2.14-.86-4.16-2.61-6.32-2.77-5.84-.43-8.29-3.13-8.47-9C630.06,177.6,628.85,173.23,628.31,170Z"/><path d="M527.14,133.5c10.63-7.25,22-5.93,33.2-6.09,10.15-.15,20.35.21,30.45-.59,7.6-.61,14.28,2.3,21.35,3.7a3.4,3.4,0,0,1,2.16,2.21c1.09,6.34,2,12.71,2.94,19.21-15.08,5.16-30.16,2.67-45,3-14.63.33-29.6,3.12-44.33-4C527.68,145.32,527.39,139,527.14,133.5Z"/><path d="M334.27,154.68c1.64-6.21,3-11.86,4.71-17.37.35-1.1,2.19-2,3.51-2.49,4-1.55,8-2.91,12-4.27a14,14,0,0,1,4.22-1c17.46-.28,34.92-.56,52.39-.6,2.26,0,4.57,1.22,6.78,2.06,2.76,1,5.45,2.29,8.71,3.67-.53,4.87-1.07,10.12-1.72,15.35-.09.74-.52,1.86-1.05,2-5.11,1.69-10.23,4.4-15.44,4.6-19.77.77-39.57.91-59.36.83C344.22,157.49,339.41,155.72,334.27,154.68Z"/><path d="M519.57,153.52c-7.2.78-14.62,2-22.09,2.3-13.3.52-26.67-.07-39.94.85-8.66.6-16.21-2-24.39-5.08.44-4.93.87-10,1.4-15.12.07-.75.64-2.09.94-2.08,6.88.24,11.31-6.29,18.54-6,13,.52,26,.16,39-.45,9.11-.42,17.75.58,26.59,5.51Z"/><path d="M430,101.2c-.49,5.31-.92,10.42-1.47,15.52-.07.71-.56,1.82-1.09,2-4.41,1.31-8.84,3.34-13.32,3.47q-28.43.84-56.88.55c-4.28,0-8.54-2.11-13.35-3.4,1.45-5.4,2.69-10.67,4.39-15.79.37-1.09,2.36-1.82,3.74-2.38,3.46-1.42,7-2.71,10.53-3.93a15.3,15.3,0,0,1,4.71-1c16.3-.15,32.62-.56,48.9,0C420.69,96.33,425.16,99.37,430,101.2Z"/><path d="M254.44,121.87c2.46-6,4.65-11.37,6.85-16.72.25-.61.41-1.55.86-1.74,5.63-2.34,11.22-6.19,17-6.53,16.91-1,33.91-.75,50.86-.46,3.67.06,7.29,2.38,11.47,3.85-1.74,6.14-3.32,11.82-5,17.49a2.38,2.38,0,0,1-1.16,1.5c-4.55,1.39-9.11,3.65-13.72,3.79-19.6.61-39.23.67-58.85.71C260.11,123.77,257.44,122.58,254.44,121.87Z"/><path d="M518.61,100.51v17.13c-6.56,1.26-13.51,3.44-20.53,3.76-15,.68-30,.61-45,.37-5.67-.08-11.3-1.48-17.15-2.31.3-4,.78-6.95.68-9.9-.17-5.33,1.8-7.5,7.07-10.17,7.74-3.93,15.22-3.34,23-3.54,6.66-.17,13.33-.11,20,0C497.23,95.9,508,94.13,518.61,100.51Z"/><path d="M352.74,86.31c.37-1.43.62-2.56,1-3.66,1.18-3.78,1.28-9.41,3.82-10.92,4.57-2.72,10.56-3.85,16-4.07,13.79-.54,27.62-.48,41.43-.11,5.93.15,11.82,1.67,18.07,2.61-.57,6.23-1,11.16-1.45,16C419.6,91.28,364.45,91.45,352.74,86.31Z"/><path d="M350.23,69.88c-1.65,5.82-1.9,11.42-4.7,15.06-2.27,3-7.58,4.82-11.6,4.94-20.45.58-40.93.46-61.39.51-1.4,0-2.79-.65-4.7-1.12C270,83.9,272,79,274,74.12c.18-.44.5-1,.88-1.15,5.52-1.86,11-5,16.62-5.23,15.44-.73,30.94-.41,46.41-.15C341.8,67.65,345.73,69,350.23,69.88Z"/><path d="M516.27,246.34c5.61-5,17.24-5,23.25-.09C535.3,251.72,521,251.78,516.27,246.34Z"/><path d="M434.91,200.48c-6.15,4.66-16.06,4.59-21.3.12C418.13,195.73,429,195.55,434.91,200.48Z"/><path d="M516.74,198.5c6.13-4.58,16.71-4.44,21.62.07C533.25,203.08,522.53,203.18,516.74,198.5Z"/><path d="M617.61,196.86c5.27-4.65,15.32-4.83,21.33-.64C635.44,201,624.42,201.41,617.61,196.86Z"/><path d="M438.81,158.63c-6.18,4.29-14.23,4.24-19.49.14C423.54,154.54,433,154.36,438.81,158.63Z"/><path d="M535.58,158.41C530,163,520.85,163,516,158.5,520.94,154.63,529.56,154.5,535.58,158.41Z"/><path d="M727.15,153.9c-5.75,4.24-14.58,4.1-19.32-.05C712.74,149.67,721.47,149.57,727.15,153.9Z"/><path d="M631.16,158.47c-4.66,4.44-13.77,4.56-19.22.26C616.37,154.51,625.87,154.38,631.16,158.47Z"/><path d="M320.59,161c4.76-4.23,13.43-4.33,19-.22C335.37,165.18,325.35,165.3,320.59,161Z"/><path d="M236.71,126.49c6.59-3.28,12.25-3.23,18.21-.35C251,130.37,243.36,130.67,236.71,126.49Z"/><path d="M422.16,124.48c6.54-3.07,12.27-3.14,18.24-.23C436.37,128.57,428.43,128.82,422.16,124.48Z"/><path d="M514.17,123a15.79,15.79,0,0,1,17.42-.2C527.4,126.71,520,126.89,514.17,123Z"/><path d="M330.22,125a20.55,20.55,0,0,1,18.33-.32C344.41,128.93,336.19,129.15,330.22,125Z"/><path d="M624.56,121.12c-6,3.76-12.78,3.67-17.63,0C611.47,117.55,619,117.45,624.56,121.12Z"/><path d="M442.5,92.44c-4.35,3.35-10.45,3.41-15.41.15C431.72,89.27,437.41,89.21,442.5,92.44Z"/><path d="M340.94,92.49a13.23,13.23,0,0,1,15.27,0A13.09,13.09,0,0,1,340.94,92.49Z"/><path d="M513.07,90.32a17.8,17.8,0,0,1,16.4-.2C525.22,93.74,519.11,93.94,513.07,90.32Z"/><path d="M268.32,94.31c-5.86,2.72-10.92,2.46-16.45.26C256.34,90.84,262.53,90.7,268.32,94.31Z"/><path d="M350,62.05h12.53v2H349.84Z"/><path d="M444.34,64.1H429.19C434,60.21,438.54,60.15,444.34,64.1Z"/></g></g></svg>